<?xml version="1.0" encoding="UTF-8"?><svg id="Calque_1" xmlns="http://www.w3.org/2000/svg" viewBox="0 0 741.23 841.6"><defs><style>.cls-1,.cls-2,.cls-3,.cls-4,.cls-5,.cls-6,.cls-7,.cls-8,.cls-9,.cls-10,.cls-11,.cls-12,.cls-13,.cls-14,.cls-15,.cls-16,.cls-17,.cls-18,.cls-19,.cls-20{isolation:isolate;}.cls-1,.cls-3,.cls-21,.cls-22,.cls-7,.cls-8,.cls-23,.cls-12,.cls-13,.cls-17,.cls-24{font-family:Sansation-Regular, Sansation;}.cls-1,.cls-7,.cls-8,.cls-13,.cls-18,.cls-20{font-size:11px;}.cls-1,.cls-24,.cls-25,.cls-26,.cls-27,.cls-28{fill:#fcfcfc;}.cls-29{letter-spacing:-.05em;}.cls-30{letter-spacing:-.05em;}.cls-31,.cls-32,.cls-6,.cls-33,.cls-34,.cls-23,.cls-13,.cls-17,.cls-18,.cls-19,.cls-20{fill:#f9b43b;}.cls-35,.cls-36,.cls-37,.cls-14,.cls-15,.cls-38{font-family:DKLemonYellowSun, 'DK Lemon Yellow Sun';}.cls-39,.cls-3,.cls-21,.cls-22,.cls-7,.cls-11,.cls-40{fill:#fff;}.cls-32{stroke-miterlimit:11.34;}.cls-32,.cls-41,.cls-40{stroke-width:2px;}.cls-32,.cls-41,.cls-25,.cls-26,.cls-27{stroke:#000;}.cls-2,.cls-5,.cls-42,.cls-41,.cls-14,.cls-15,.cls-43,.cls-44{fill:#333;}.cls-2,.cls-34,.cls-16,.cls-45,.cls-18,.cls-19{font-family:ArialMT, Arial;}.cls-2,.cls-16{font-size:10px;}.cls-46{letter-spacing:0em;}.cls-3,.cls-6,.cls-9,.cls-10,.cls-11,.cls-12,.cls-17,.cls-19{font-size:11px;}.cls-47{letter-spacing:-.08em;}.cls-48{letter-spacing:0em;}.cls-49{letter-spacing:-.06em;}.cls-50{letter-spacing:-.05em;}.cls-5{font-size:28px;}.cls-51{letter-spacing:-.04em;}.cls-6,.cls-33,.cls-10,.cls-11,.cls-20{font-family:Sansation-Bold, Sansation;}.cls-52{letter-spacing:-.04em;}.cls-22,.cls-53{letter-spacing:-.05em;}.cls-8,.cls-16{fill:#2e2e2e;}.cls-54{letter-spacing:-.02em;}.cls-55{letter-spacing:-.05em;}.cls-36{letter-spacing:0em;}.cls-37{letter-spacing:-.04em;}.cls-14{font-size:22px;}.cls-56{letter-spacing:0em;}.cls-15{font-size:15px;}.cls-57{letter-spacing:-.07em;}.cls-38{letter-spacing:-.05em;}.cls-58{letter-spacing:-.06em;}.cls-59{letter-spacing:-.09em;}.cls-60{letter-spacing:-.03em;}.cls-40{stroke:#333;stroke-miterlimit:10;}.cls-25{stroke-width:1.98px;}.cls-25,.cls-26,.cls-27{stroke-linecap:round;stroke-linejoin:round;}.cls-61{letter-spacing:-.1em;}.cls-26{stroke-width:1.98px;}.cls-43{fill-rule:evenodd;}.cls-43,.cls-44{opacity:.4;}.cls-62{letter-spacing:-.07em;}.cls-27{stroke-width:1.98px;}</style></defs><g id="Calque_3"><g id="layer3"><rect id="rect1402" class="cls-42" x="145.63" y=".3" width="595.6" height="841.3"/></g><rect class="cls-31" x="155.63" y="11.25" width="574.7" height="819.4"/></g><g id="Calque_4"><path id="path32" class="cls-43" d="M731.93,660.9h0c-.8-16.6-8.6-34.7-18.8-47.5,6.1,10.4,10.4,22.2,12,35v.2c6.9,53.1-30.3,101.9-83.3,108.8l-350.6,46c-34.6,4.6-67.3-9.9-87.7-35.4,19.2,31.9,59.2,46.4,98.4,41.2l350.5-46.8c55.1-11.8,80.2-56.7,79.5-101.5h0Z"/><path id="path32-9" class="cls-43" d="M731.73,443.7h0c-.8-16.6-8.6-34.9-18.8-47.7,6.1,10.4,10.4,22.3,12,35.1v.2c6.9,53.3-30.3,102.4-83.1,109.3l-349.8,46.2c-34.5,4.6-67.2-9.9-87.5-35.5,19.1,32.1,59.1,46.6,98.2,41.4l349.6-47c55.1-11.9,80-57,79.4-102h0Z"/><path id="path32-9-7" class="cls-43" d="M730.83,226.3h0c-.8-16.6-8.5-34.9-18.7-47.7,6.1,10.4,10.4,22.3,11.9,35.1v.2c6.9,53.3-30.2,102.4-82.9,109.3l-348.7,46.2c-34.4,4.6-66.9-9.9-87.2-35.5,19.1,32.1,58.9,46.6,97.8,41.4l348.6-47.1c54.9-11.8,79.8-56.9,79.2-101.9h0Z"/></g><g id="Calque_2"><g class="cls-4"><path class="cls-42" d="M645.93,322.9l-345.6,47.3c-61.9,8.5-119-34.8-127.4-96.7l-10.2-74.2,457.6-62.7c51.4-7,98.8,28.9,105.9,80.4h0c7.1,51.4-28.9,98.8-80.3,105.9Z"/><g><polyline class="cls-41" points="163.43 204.3 162.73 199.3 167.73 198.6"/><path class="cls-41" d="M177.63,197.3l442.7-60.7c51.4-7,98.8,28.9,105.9,80.4h0c7,51.4-28.9,98.8-80.4,105.9l-345.5,47.3c-61.9,8.5-119-34.8-127.4-96.7l-8.8-64.3"/></g></g><g class="cls-4"><path class="cls-42" d="M645.93,539.8l-345.6,47.3c-61.9,8.5-119-34.8-127.4-96.7l-10.2-74.2,457.6-62.7c51.4-7,98.8,28.9,105.9,80.4h0c7.1,51.4-28.9,98.8-80.3,105.9Z"/><g><polyline class="cls-41" points="163.43 421.2 162.73 416.2 167.73 415.5"/><path class="cls-41" d="M177.63,414.2l442.7-60.7c51.4-7,98.8,28.9,105.9,80.4h0c7,51.4-28.9,98.8-80.4,105.9l-345.5,47.3c-61.9,8.5-119-34.8-127.4-96.7l-8.8-64.3"/></g></g><g class="cls-4"><path class="cls-42" d="M645.93,756.7l-345.6,47.3c-61.9,8.5-119-34.8-127.4-96.7l-10.2-74.2,457.6-62.7c51.4-7,98.8,28.9,105.9,80.4h0c7.1,51.4-28.9,98.8-80.3,105.9Z"/><g><polyline class="cls-41" points="163.43 638.1 162.73 633.1 167.73 632.4"/><path class="cls-41" d="M177.63,631.1l442.7-60.7c51.4-7,98.8,28.9,105.9,80.4h0c7,51.4-28.9,98.8-80.4,105.9l-345.5,47.3c-61.9,8.5-119-34.8-127.4-96.7l-8.8-64.3"/></g></g></g><g id="svg8"><g id="layer1"><g id="g3950" transform="translate(-95.878315,-31.284141)"><g id="g1819" transform="translate(-1.1925601,-0.39752002)"><g id="g3931" transform="rotate(-7.9233738,211.78777,222.03127)"><text class="cls-15" transform="translate(187.07 71.24) rotate(-7.92)"><tspan x="0" y="0">17 </tspan><tspan class="cls-54" x="12.18" y="0">r</tspan><tspan x="16.83" y="0">ue d</tspan><tspan class="cls-52" x="37.56" y="0">e</tspan><tspan x="41.98" y="0">s </tspan><tspan class="cls-50" x="51.52" y="0">c</tspan><tspan class="cls-46" x="56.52" y="0">o</tspan><tspan class="cls-50" x="63.07" y="0">q</tspan><tspan x="69.57" y="0">ue</tspan><tspan class="cls-60" x="80.22" y="0">l</tspan><tspan class="cls-51" x="84.97" y="0">i</tspan><tspan class="cls-50" x="87.22" y="0">c</tspan><tspan class="cls-47" x="92.22" y="0">o</tspan><tspan class="cls-51" x="97.6" y="0">t</tspan><tspan x="102.25" y="0">s </tspan></text><text class="cls-15" transform="translate(174.58 93.37) rotate(-7.92)"><tspan x="0" y="0">8</tspan><tspan class="cls-58" x="5.56" y="0">0</tspan><tspan class="cls-62" x="10.99" y="0">7</tspan><tspan class="cls-46" x="15.09" y="0">80 </tspan><tspan class="cls-30" x="31.41" y="0">s</tspan><tspan x="35.74" y="0">ai</tspan><tspan class="cls-30" x="44.56" y="0">n</tspan><tspan x="50.89" y="0">t </tspan><tspan class="cls-51" x="60.63" y="0">l</tspan><tspan class="cls-49" x="65.28" y="0">e</tspan><tspan x="69.36" y="0">ger </tspan><tspan class="cls-51" x="90.19" y="0">le</tspan><tspan x="99.27" y="0">s </tspan><tspan class="cls-51" x="108.81" y="0">d</tspan><tspan x="113.8" y="0">om</tspan><tspan class="cls-51" x="127.8" y="0">a</tspan><tspan class="cls-29" x="133.2" y="0">r</tspan><tspan x="137.4" y="0">t</tspan></text><path id="path5811" class="cls-42" d="M173.26,78.11c-.3,.04-.41-.04-.62-.12-.11-.09-.13-.18-1.53-3.02-.83-1.6-1.53-3.02-1.52-2.92,0,0-.07,.21-.16,.32-.07,.21-.16,.32-.24,.44,0,0-.09,.11-.28,.14-.18,.13-.38,.15-.71,0-.42-.14-.55-.33-.61-.72-.01-.1,.06-.31,.34-1.16,.76-1.82,1.04-2.67,1.4-3.73,.23-.54,.53-1.29,.67-1.71,.16-.32,.3-.75,.37-.96q.51-1.38,.78-1.62c.18-.13,.38-.15,.81-.01,.21,.07,.62,.12,.95,.27,.64,.21,1.36,.32,2.42,.67,.42,.14,.95,.27,1.26,.33s.83,.19,1.16,.34c.31,.06,.83,.19,1.16,.34q1.47,.4,1.58,.49t.24,.27c.13,.18,.06,.4,0,.71-.06,.31-.24,.44-.33,.55-.09,.11-.18,.13-.4,.06l-.21-.07,1.42,2.93,1.42,2.93v.1c.04,.2-.04,.31-.13,.42q-.09,.11-1.4,.8c-1.5,.81-1.52,.72-1.73,.64-.31-.06-.18,.13-1.43-2.32l-1.1-2.07-1.52,.72-1.52,.72,1.1,2.07,1.1,2.07v.1c.04,.2-.03,.41-.12,.52q-.09,.11-1.3,.79c-.94,.53-1.22,.67-1.32,.69h0Z"/></g><g id="g3926" transform="rotate(-7.9233738,184.39123,-3.0629786)"><text class="cls-15" transform="translate(197.75 113.87) rotate(-7.92)"><tspan class="cls-55" x="0" y="0">0</tspan><tspan class="cls-61" x="5.43" y="0">7</tspan><tspan class="cls-56" x="9.07" y="0">.81.3</tspan><tspan class="cls-52" x="28" y="0">0</tspan><tspan x="33.67" y="0">.2</tspan><tspan class="cls-30" x="41.71" y="0">6</tspan><tspan class="cls-56" x="46.78" y="0">.14</tspan></text><path id="path5813" class="cls-42" d="M187.76,112.71l-.2,.03c-.58,.18-1.17,.26-1.88,.26-1.73-.06-3.31-.55-5.06-1.52-1.75-.97-3.15-2.29-4.06-3.78-.14-.28-.41-.75-.43-.95-.2-.68-.18-1.29,.02-2.02,.06-.31,.14-.42,.31-.65,.16-.32,.33-.55,.6-.79,.09-.11,1.22,.03,1.1-.05-.13-.18-.34-.26-.65-.31-.41-.04,1.76,1.07,2.38,1.89,.13,.18,.27,.47,.28,.57s.04,.3-.04,.41c-.07,.21-.24,.44-.68,.9-.17,.23-.35,.35-.34,.45-.09,.11-.07,.21-.06,.31s.24,.27,.58,.53c1.14,.95,2.36,1.69,3.74,2.21,.54,.23,1.27,.43,1.37,.42s.2-.03,.18-.13c0,0,.09-.11,.07-.21,.06-.31,.13-.52,.2-.73,.14-.42,.31-.65,.6-.79,.18-.13,.38-.15,.79-.11,.92,.07,1.96,.33,2.4,.57,.44,.24,.58,.53,.45,1.05,.01,.1-.13,.52-.21,.64-.16,.32-.33,.55-.5,.78-.09,.11-.35,.35-.54,.48,.04,.3-.33,.55-.43,.56h0Zm.79-6.67c-.1,.01-.2,.03-.31-.06-.21-.07-.34-.26-.48-.54-.04-.3-.17-.48-.32-.86-.25-.37-.39-.65-.63-.92-.96-1.08-2.36-1.69-3.77-1.7l-1.09,.15-.3,.04c-.2,.03-.52-.13-.56-.43-.14-.28,.03-.51,.2-.73q.1-.01,.28-.14c.2-.03,.58-.18,.78-.21,2.28-.32,4.54,.68,5.92,2.61,.13,.18,.41,.75,.53,.94,.15,.38,.31,.76,.32,.86-.1,.72-.27,.95-.57,.99h0Zm-1.81,.76c-.2,.03-.4,.06-.52-.13-.11-.09-.23-.17-.25-.37-.04-.3-.17-.48-.29-.67-.25-.37-.51-.74-.84-.99-.56-.43-1.3-.63-2.01-.63l-.59,.08-.4,.06c-.42-.14-.59-.62-.34-.96,.09-.11,.27-.24,.67-.29,.5-.07,.99-.14,1.51,0,.72,.1,1.37,.42,1.92,.74,.45,.34,.8,.7,1.07,1.16,.24,.27,.42,.85,.56,1.13,.03,.2,.06,.4-.13,.52-.06,.31-.16,.32-.35,.35h0Zm-1.8,.86c-.3,.04-.62-.12-.66-.41l-.03-.2c-.17-.48-.61-.72-1.13-.85l-.5,.07c-.2,.03-.3,.04-.41-.04-.21-.07-.32-.16-.35-.35-.04-.3,.03-.51,.21-.64,.18-.13,.48-.17,.88-.22,.91-.03,1.67,.37,2.17,1.11,.13,.18,.29,.67,.32,.86s-.06,.31-.14,.42c-.18,.13-.27,.24-.37,.25h0Z"/></g><g id="g3936" transform="rotate(-7.9233738,191.87238,1.6146029)"><text class="cls-15" transform="translate(197.58 140.17) rotate(-7.92)"><tspan x="0" y="0">mahi</tspan><tspan class="cls-52" x="21.75" y="0">e</tspan><tspan x="26.17" y="0">u</tspan><tspan class="cls-59" x="31.81" y="0">x</tspan><tspan class="cls-48" x="37.41" y="0">c</tspan><tspan class="cls-50" x="42.99" y="0">l</tspan><tspan x="47.52" y="0">air</tspan><tspan class="cls-55" x="61.35" y="0">e</tspan><tspan x="65.53" y="0">@ora</tspan><tspan class="cls-51" x="92.13" y="0">n</tspan><tspan x="98.58" y="0">ge.fr</tspan></text><path id="path5815" class="cls-42" d="M177.85,138.11l-.23-.17c-.13-.18-.27-.47-.21-.78v-.1l1.57-3.86,1.58-3.86,.09-.11,.09-.11s.11,.09,.28,.57c.28,.57,.46,1.15,1.02,2.28,.32,.86,1.67,4.01,1.95,4.57,.42,.85,.43,.95,.56,1.13,.24,.27,.75,.3,1.13,.15,.1-.01,.95-.43,1.9-.87s2-.88,2.28-1.02c.28-.14,.76-.31,1.05-.45,.28-.14,.86-.32,1.15-.46,.28-.14,.86-.32,1.15-.46,.48-.17,.57-.28,.58-.18l.03,.2v.1l-1.57,3.86-1.58,3.86-.09,.11c-.17,.23-.45,.37-.75,.41s.24,.27-6.19-2.37c-4.82-1.95-5.79-2.43-5.79-2.43h0Zm7.1-1.19s-.11-.09-.14-.28c-.17-.48-1.04-2.38-1.18-2.66-.14-.28-.31-.76-1.47-3.33-.87-1.9-.88-2-.88-2h.1l.1-.03,5.87,2.31,5.87,2.31,.11,.09c.01,.1,.11,.09,.11,.09,0,0-.1,.01-2,.88-2.28,1.02-3.71,1.63-5.04,2.22-.67,.29-1.15,.46-1.15,.46-.09,.11-.3,.04-.31-.06h0Z"/></g></g><text class="cls-2" transform="translate(607.86 414.34)"><tspan x="0" y="0"> </tspan></text></g><g id="g1537" transform="rotate(16.510585,135.31686,112.24924)"><text class="cls-5" transform="translate(548.02 63.44) rotate(16.51)"><tspan class="cls-35" x="0" y="0">C</tspan><tspan class="cls-38" x="11.98" y="0">l</tspan><tspan class="cls-36" x="20.44" y="0">aire Mahi</tspan><tspan class="cls-37" x="105.14" y="0">e</tspan><tspan class="cls-35" x="113.4" y="0">ux</tspan><tspan class="cls-45" x="137" y="0"> </tspan></text><text class="cls-14" transform="translate(588.3 117.84) rotate(16.51)"><tspan x="0" y="0">34 ans</tspan></text></g><g class="cls-4" transform="matrix(0.991 -0.1335 0.1335 0.991 140.8765 438.676)"><text class="cls-18" transform="translate(286.21 438.68) rotate(-7.67)"><tspan x="0" y="0">-</tspan></text><text class="cls-20" transform="translate(289.68 438.21) rotate(-7.67)"><tspan class="cls-57" x="0" y="0">T</tspan><tspan x="5.02" y="0">éléconseillère</tspan></text><text class="cls-18" transform="translate(363.91 428.21) rotate(-7.67)"><tspan x="0" y="0"> </tspan></text><text class="cls-20" transform="translate(366.09 427.92) rotate(-7.67)"><tspan x="0" y="0">Comdata</tspan></text></g><g class="cls-4" transform="matrix(0.991 -0.1335 0.1335 0.991 266.6112 421.7328)"><text class="cls-8" transform="translate(411.95 421.73) rotate(-7.67)"><tspan x="0" y="0"> </tspan></text><text class="cls-7" transform="translate(414.03 421.45) rotate(-7.67)"><tspan x="0" y="0">Amiens 80000 (mai 2018-Aujourd’hui)</tspan></text></g><text/><text/><text/><text/><text/><text/><text/><text/><text/><g class="cls-4" transform="matrix(0.991 -0.1335 0.1335 0.991 189.3942 445.5797)"><text class="cls-7" transform="translate(285.73 450.58) rotate(-7.67)"><tspan x="0" y="0" xml:space="preserve"> Assistante commerciale sur le plateau Bouygues télécom entreprise</tspan></text><text class="cls-7" transform="translate(610.42 408.44) rotate(-7.67)"><tspan x="0" y="0">.</tspan></text></g><g class="cls-4" transform="matrix(0.991 -0.1335 0.1335 0.991 146.2137 478.2828)"><text class="cls-13" transform="translate(291.55 478.28) rotate(-7.67)"><tspan x="0" y="0">-</tspan></text><text class="cls-13" transform="translate(295.02 477.82) rotate(-7.67)"><tspan x="0" y="0">Aide administrative à la direction </tspan></text><text class="cls-13" transform="translate(458.04 455.85) rotate(-7.67)"><tspan x="0" y="0">(2015-2017) école la Neuville Amiens 80000.</tspan></text></g><text class="cls-1" transform="translate(293.33 491.49) rotate(-7.67)"><tspan x="0" y="0">Aide aux tâches administratives inhérentes à la direction d’une école.</tspan></text><g class="cls-4" transform="matrix(0.991 -0.1335 0.1335 0.991 151.5519 517.8905)"><text class="cls-13" transform="translate(296.89 517.89) rotate(-7.67)"><tspan x="0" y="0">-</tspan></text><text class="cls-13" transform="translate(300.36 517.42) rotate(-7.67)"><tspan x="0" y="0">Guide touristique </tspan></text><text class="cls-13" transform="translate(387.86 505.63) rotate(-7.67)"><tspan x="0" y="0">Familistère de Guise 02120 ( été 2009 ) .</tspan></text></g><text class="cls-7" transform="translate(298.66 531.09) rotate(-7.67)"><tspan x="0" y="0">Chargée d’assurer les visites guidées, gestion de la boutique, aide à la </tspan></text><text class="cls-7" transform="translate(300.44 544.3) rotate(-7.67)"><tspan x="0" y="0">buvette-restaurant, </tspan></text><text class="cls-7" transform="translate(397.3 531.09) rotate(-7.67)"><tspan x="0" y="0">accueil physique et téléphonique des visiteurs.</tspan></text><g id="path7909-4"><ellipse class="cls-28" cx="224.53" cy="479.25" rx="39" ry="39.2" transform="translate(-99.46 60.77) rotate(-12.64)"/><path class="cls-26" d="M215.23,441.1c21-4.7,41.9,8.6,46.6,29.7,9.4,51.1-62.7,67.3-76.1,17.1-4.7-21.1,8.5-42.1,29.5-46.8h0Z"/></g><path id="path5900" class="cls-42" d="M233.63,453.4c-.3,0-.6,.1-.8,.2l-.3,.1-5,3.3-5.5,3.6-1.3-2c-.6-.8-1.1-1.6-1.1-1.6-1.4-1.5-4.1-1.8-6.7-.6-.6,.3-4.8,3-5.3,3.4-2.1,1.8-2.9,4.1-2.3,6,.1,.3,.1,.4,1.1,1.9l1.4,2.1-5.3,3.5-4.8,3.2-.3,.3c-.8,.9-1.1,1.9-1,2.9,.1,.5,0,.5,.3,1,.3,.6,1,1.6,2.4,3.7,1.9,3,2.6,3.9,2.6,3.9,.1,.1,.2,.1,1.2,0l1.2-.1,5.1,7.9,4.9,7.5,.1,.1c.5,.4,1,.5,1.4,.3,.1,0,.7-.4,17.2-11.2,11.2-7.4,15.2-10,16.6-11,.4-.3,.6-.4,.7-.5s-.1,.1,.1-.2c.1-.3,.2-.7,.2-1,0-.4,.1-.2-.2-.7-.4-.7-1.6-2.5-4.8-7.4l-5-7.7,.6-1q.5-.9,.5-1.1v-.1l-2.4-3.7c-2.6-4-2.6-4.1-3.2-4.5-.4-.3-.7-.5-1.4-.6q-.5,.1-.9,.1h0Zm.2,1.4c.3,0,.5,0,.8,.1,.4,.2,.5,.4,2.6,3.7l2.4,3.7-1.1,1.8c-2.5,4.3-4.9,7.5-7.7,10.4-.7,.7-2,2-2.2,2.1-.6,.4-.9-.1-1.5-1-.5-.8-.6-.8-.7-.9-.3-.2-.6-.3-.9-.3q-.5,0-.7,.2c-.4,.2-1.2,.8-2.9,1.9l-2.9,1.9-.1,.2c-.2,.3-.3,.6-.2,.9,0,.4,.1,.5,.6,1.4l.8,1.3-.6,.4c-.3,.2-1.5,.7-2.4,1-3.9,1.5-8.1,2.5-13.2,3.1l-1.8,.2-2.3-3.6-2.2-3.5v-.4c0-.4,.1-.8,.4-1.2,.2-.3,3.9-2.7,17.7-11.8l17.6-11.6h.5Zm-17.7,2.2c.7,0,1.4,.2,1.9,.6,.3,.2,.4,.5,1.3,1.8l1.3,2-5.8,3.8-5.8,3.8-1.3-2.1-1.1-1.7-.1-.5c-.2-1.1,.3-2,1.2-3,.3-.3,.5-.5,3-2.1,1.7-1.2,2.7-1.8,3-1.9,.9-.5,1.7-.7,2.4-.7h0Zm23.1,9.1c.3-.1,.6,.2,.6,.3,.3,.3,1.3,1.8,4.4,6.6,3.9,5.9,4.4,6.7,4.4,7.1v.4l-16.6,10.9-16.7,11-.4-.4c-.2-.2-2.1-3.2-4.5-6.8-3.1-4.7-4.1-6.2-4.3-6.6,0-.1-.4-.6,.3-.8h0s.8-.1,1.6-.3c5.3-.9,8.8-2,12.2-3.5,.3-.1,.6-.3,.9-.2,.3,.1,.5,.4,.7,.7,.2,.3,.4,.5,.4,.6,.4,.4,.8,.5,1.3,.5h.2l3-2,3-2,.1-.3c.2-.4,.3-.8,.1-1.3,0-.1-.2-.4-.4-.7l-.6-.9,.4-.4,.6-.6c2.7-2.4,5.1-5.4,8-9.8,.4-.6,.7-1.1,.7-1.1,.4-.2,.5-.3,.6-.4h0Zm-13.8,9.3l1.8,2.7,1.8,2.7-2.7,1.8-2.7,1.8-1.8-2.7-1.8-2.7,2.7-1.8,2.7-1.8Z"/><text class="cls-16" transform="translate(0 299.95)"><tspan x="0" y="0"> </tspan></text><ellipse id="path7909" class="cls-27" cx="222.74" cy="261.7" rx="39" ry="39.2" transform="translate(-50.65 53.48) rotate(-12.3)"/><path id="path5898" class="cls-42" d="M212.03,239.5c-1.2,0-2.3,.8-2.7,1.9-.1,.4-1.1,5.4-3.3,17.3l-3.1,16.8,.1,.4c.2,.9,.6,1.6,1.4,2,.4,.2,.5,.3,2.4,.7l2.6,.5-.6,3.1c-.1,.6-.2,1.1-.3,1.6,.5-.2,1.2-.5,1.9-.8,1.5-.7,2.9-1.3,3.2-1.2,.3,.1,1.4,1.1,2.6,2.3l1.5,1.5c.1-.3,.1-.5,.2-.8,.2-1.1,.5-2.7,.8-4.4l1-5.1c-1.3,1.3-3.3,1.5-4.9,.6h-.1c-1.7,.3-3.6-.7-4.3-2.4l-.2,.8-.5,2.5-2.3-.5-2.3-.5,3.2-17,3.2-17.1,14.4,2.8,14.4,2.8-3.2,17.1-3.2,17-5.2-.9c-4.6-.8-4.5-.8-4.7-.7-.4,.1-.6,.4-.7,.8s-.1,.4,0,.6c.1,.3,.4,.6,.7,.7,.1,.1,1.8,.4,4.9,1,4.7,.9,4.5,.9,5,.8,.9-.2,1.5-.6,2-1.4l.2-.4,3.2-16.7c2.2-11.9,3.2-16.9,3.2-17.3,0-1.2-.7-2.3-1.8-2.8-.2-.1-7.3-1.5-14.4-2.8-7-1.5-14.1-2.8-14.3-2.8h0Zm3.6,9.8c-.2,0-.4,.1-.4,.2-.2,.1-.4,.6-.5,.8-.1,.3,.3,1.1,.6,1.2,.1,.1,.3,.1,.4,.2,0,0,4,.7,8.8,1.7,8.4,1.6,8.9,1.6,9,1.6,1-.3,1.2-1.5,.4-2.1-.1-.1-.4-.2-9.1-1.8-8.6-1.8-9-1.9-9.2-1.8Zm-1.1,6.8l-.2,.1-.4,.2c-.6,.5-.5,1.3,.1,1.8,0,0,.7,.2,6.5,1.3,6.2,1.2,6.4,1.2,6.6,1.2,.3-.1,.5-.3,.7-.6,.3-.4,.2-.9-.3-1.4l-.2-.2-6.3-1.2-6.5-1.2Zm2.1,7.1c-.1,0-.5,.3-.7,.6-.4,.4-.7,.3-1.1,.1-.5-.3-1.1-.2-1.4,.1-.1,.1-.2,.2-.3,.6-.2,.8-.4,1.4-1.1,1.2-.1,0-.7,.4-.8,.9,0,.3,.1,.8,.2,.8,.5,.5,.4,1.1,0,1.6-.3,.3-.2,1.1,.1,1.3,.1,.1,.3,.2,.4,.2,.7,.2,1.1,.5,1.1,1.3,0,.4,.2,.7,.8,1h.5s-.1,0,0,0h0q.1,0,.2-.1c.7-.3,1.2-.3,1.7,.3,.4,.4,.8,.5,1.4,.1l.4-.4c.3-.7,.7-.9,1.5-.8,.3,0,.7-.1,.9-.4,.2-.2,.3-.7,.2-1-.2-.6,0-1.3,.7-1.5,0,0,.3-.4,.4-.7,.1-.4-.3-1.1-.4-1.1-.7-.1-.7-.9-.6-1.5,.1-.4,0-.9-.4-1.2-.1-.1-.6-.2-.9-.2-.5,.1-.8,0-1-.5-.1-.3-.4-.7-.5-.8-.5,.2-1.1,.1-1.3,.1h0Zm-.7,1.8c.6,0,1.2,.1,1.8,.4,1.1,.6,1.8,1.7,1.8,3.1,0,1.5-1.1,2.9-2.6,3.2-1.4,.3-2.8-.2-3.6-1.4-1-1.5-.7-3.6,.8-4.7,.6-.3,1.2-.6,1.8-.6Z"/><g id="g1679" transform="rotate(-7.8039438,3.1535538,207.18484)"><g class="cls-4" transform="matrix(1 0 0 1 124.5508 251.2706)"><text class="cls-6" transform="translate(274.75 234.38) rotate(-7.8)"><tspan x="0" y="0">-</tspan></text><text class="cls-6" transform="translate(278.22 233.9) rotate(-7.8)"><tspan x="0" y="0">2022: Concepteur Designer UI</tspan></text></g><text class="cls-3" transform="translate(422.04 214.33) rotate(-7.8)"><tspan x="0" y="0" xml:space="preserve">    à la Manu d&apos;Amiens 80000, école du numérique. </tspan></text><text class="cls-17" transform="translate(277.44 246.71) rotate(-7.8)"><tspan x="0" y="0" xml:space="preserve">( études toujours en  cours jusqu&apos;à octobre 2022 )</tspan></text><g class="cls-4" transform="matrix(1 0 0 1 125.5415 288.7472)"><text class="cls-6" transform="translate(280.82 271.37) rotate(-7.8)"><tspan x="0" y="0">-</tspan></text><text class="cls-6" transform="translate(284.29 270.9) rotate(-7.8)"><tspan x="0" y="0">2010/2011: Master 1 “Théories et pratiques artistiques”</tspan></text><text class="cls-6" transform="translate(556.04 233.65) rotate(-7.8)"><tspan x="0" y="0">, </tspan></text><text class="cls-11" transform="translate(560.11 233.1) rotate(-7.8)"><tspan x="0" y="0">à l&apos;U</tspan><tspan class="cls-53" x="21.89" y="0">P</tspan><tspan x="28.08" y="0">JV d&apos;Amiens.</tspan></text></g><g class="cls-4" transform="matrix(1 0 0 1 125.5395 313.6407)"><text class="cls-6" transform="translate(284.2 296.04) rotate(-7.8)"><tspan x="0" y="0">-</tspan></text><text class="cls-6" transform="translate(287.66 295.56) rotate(-7.8)"><tspan x="0" y="0">2006/2007: Baccalauréat Littéraire (spécialité arts plastiques)</tspan></text><text class="cls-6" transform="translate(588.06 254.39) rotate(-7.8)"><tspan x="0" y="0"> </tspan></text><text class="cls-10" transform="translate(595.88 253.14) rotate(-7.8)"><tspan class="cls-39" x="0" y="0">au Lycée Henri Martin</tspan><tspan class="cls-31" x="107.9" y="0"> </tspan></text></g><text class="cls-19" transform="translate(285.89 308.37) rotate(-7.8)"><tspan x="0" y="0">à Saint-Quentin, 02100.</tspan></text><g class="cls-4" transform="matrix(1 0 0 1 125.5405 350.9805)"><text class="cls-6" transform="translate(289.27 333.03) rotate(-7.8)"><tspan x="0" y="0">-</tspan></text><text class="cls-6" transform="translate(292.73 332.56) rotate(-7.8)"><tspan x="0" y="0">1999/2004: Participation aux cours d&apos;arts plastiques</tspan></text><text class="cls-6" transform="translate(546.96 297.71) rotate(-7.8)"><tspan x="0" y="0">, </tspan></text><text class="cls-6" transform="translate(556.04 296.16) rotate(-7.8)"><tspan x="0" y="0">de croquis et de sculpture </tspan></text></g><text class="cls-3" transform="translate(290.96 345.36) rotate(-7.8)"><tspan x="0" y="0">à l&apos;école Maurice Quentin de la tour à Saint-Quentin 02100.</tspan></text></g><g id="g1417" transform="rotate(-7.481486,-15.415471,335.50227)"><g class="cls-4" transform="matrix(1 0 0 1 80.2891 661.42)"><text class="cls-19" transform="translate(267.25 646.18) rotate(-7.48)"><tspan x="0" y="0">-</tspan></text><text class="cls-6" transform="translate(270.72 645.73) rotate(-7.48)"><tspan x="0" y="0">Langues étrangères </tspan></text><text class="cls-19" transform="translate(367.88 632.97) rotate(-7.48)"><tspan x="0" y="0">: </tspan></text><text class="cls-3" transform="translate(372.44 632.37) rotate(-7.48)"><tspan x="0" y="0">Anglais courant ; Allemand notions de base.</tspan></text></g><g class="cls-4" transform="matrix(1 0 0 1 80.2881 691.8135)"><text class="cls-19" transform="translate(271.2 676.32) rotate(-7.48)"><tspan x="0" y="0">-</tspan></text><text class="cls-6" transform="translate(274.67 675.86) rotate(-7.48)"><tspan x="0" y="0">Informatique </tspan></text><text class="cls-19" transform="translate(341.2 667.13) rotate(-7.48)"><tspan x="0" y="0">:</tspan></text></g><g class="cls-4" transform="matrix(1 0 0 1 80.2901 722.2071)"><text class="cls-19" transform="translate(275.16 706.45) rotate(-7.48)"><tspan x="0" y="0" xml:space="preserve">                 </tspan></text><text class="cls-9" transform="translate(310.95 701.75) rotate(-7.48)"><tspan class="cls-33" x="0" y="0">*Bureautique</tspan><tspan class="cls-34" x="65.19" y="0" xml:space="preserve"> : </tspan><tspan class="cls-21" x="74.36" y="0">Word , Excel , PowerPoint (PCIE obtenu en 2017).</tspan></text></g><g class="cls-4" transform="matrix(1 0 0 1 80.2881 737.7276)"><text class="cls-19" transform="translate(277.18 721.84) rotate(-7.48)"><tspan x="0" y="0" xml:space="preserve">                 </tspan></text><text class="cls-9" transform="translate(312.97 717.14) rotate(-7.48)"><tspan class="cls-33" x="0" y="0">*Art / Graphisme </tspan><tspan class="cls-34" x="86.85" y="0">:</tspan><tspan class="cls-23" x="89.9" y="0"> </tspan><tspan class="cls-21" x="92.59" y="0">Photoshop , Illustrator, InDesign, adobeXD, première pro.</tspan></text></g><g class="cls-4" transform="matrix(1 0 0 1 80.2891 753.2491)"><text class="cls-19" transform="translate(279.2 737.23) rotate(-7.48)"><tspan x="0" y="0" xml:space="preserve">                 </tspan></text><text class="cls-9" transform="translate(315 732.53) rotate(-7.48)"><tspan class="cls-33" x="0" y="0">*Developpement Front end </tspan><tspan class="cls-34" x="136.15" y="0">: </tspan><tspan class="cls-21" x="142.26" y="0">HTML, C</tspan><tspan class="cls-22" x="185.24" y="0">S</tspan><tspan class="cls-21" x="191.64" y="0">S, javaScript (notions de bases),</tspan></text></g><g class="cls-4" transform="matrix(1 0 0 1 80.2891 768.7706)"><text class="cls-19" transform="translate(281.22 752.62) rotate(-7.48)"><tspan x="0" y="0" xml:space="preserve">                              </tspan></text><text class="cls-12" transform="translate(344.38 744.33) rotate(-7.48)"><tspan class="cls-39" x="0" y="0">, bootstrap, wordpress.</tspan><tspan class="cls-31" x="111.91" y="0"> </tspan></text></g><g class="cls-4" transform="matrix(1 0 0 1 80.2891 799.1641)"><text class="cls-19" transform="translate(285.18 782.76) rotate(-7.48)"><tspan x="0" y="0">- </tspan></text><text class="cls-6" transform="translate(290.73 782.03) rotate(-7.48)"><tspan x="0" y="0">Loisirs</tspan></text><text class="cls-19" transform="translate(322.56 777.85) rotate(-7.48)"><tspan x="0" y="0"> </tspan></text><text class="cls-9" transform="translate(324.64 777.57) rotate(-7.48)"><tspan class="cls-34" x="0" y="0">:</tspan><tspan class="cls-23" x="3.06" y="0"> </tspan><tspan class="cls-24" x="5.74" y="0">dessin, photo, vidéo, cinéma, musique, sculpture, crochet, vélo ,piscine.</tspan></text></g></g><ellipse id="path7909-4-5" class="cls-25" cx="223.5" cy="699.93" rx="39.5" ry="39.7" transform="translate(-149.48 66.89) rotate(-12.8)"/><path id="path1375" class="cls-42" d="M239.43,716.1c-.6,1-1.5,2-2.7,2.5-.3,.2-1.1,.4-2,.5-1,.2-2.3,.5-2.9,.7q-1,.2-1.6,.3c-.3,.1-.7,.2-.9,.2s-.5,.1-.8,.2c-.2,0-.5,.1-.6,.1s-.3,.1-.3,.1c-.1,0-.3,.1-.4,.1-.2,0-.5,.1-.7,.2-.2,0-.4,.1-.4,.1-.1,0-.3,.1-.4,.1-.2,0-.5,.1-.7,.2-.2,0-.4,.1-.4,.1-.1,0-.5,.1-1.3,.3-1.1,.3-2,.4-2.3,.5s-.6,.1-.9,.2c-1.6,.3-2,.4-2.7,.3q-.5-.1-1.3-.4c-1-.4-.9-.3-2.8-2.6-.5-.5-1.1-1.2-1.4-1.6-.5-.6-1-1.1-2.8-3.4-.4-.5-1-1.1-1.3-1.5-.4-.4-1-1.1-1.3-1.5-.4-.5-1-1.1-1.2-1.5-.3-.3-.9-1-1.3-1.5-.5-.5-1.1-1.2-1.4-1.6-.7-.8-.9-1-1.1-1.7-.2-.4-.3-.8-.3-1.4,0-1,.1-1.4,1.1-3.8,.4-1,.8-1.9,.8-1.9q.1-.1,0-.2s1.2-2.9,2.6-6.3c2.4-5.8,2.7-6.2,2.8-6.5,.3-.3,.6-.8,.9-1,.1-.1,.2-.1,.2-.1,0-.1,.7-.5,.9-.7,.7-.3,1.2-.5,3.5-1.1,.4-.1,.8-.2,.8-.2,0,0,.3-.1,.5-.1,.3-.1,.5-.1,.5-.1,0,0,.2,0,.3-.1,.2,0,.4-.1,.8-.3,.2,0,.6-.1,1-.2,.3-.1,.8-.2,1-.2,.3-.1,.4-.1,.5-.1,0,0,.4-.1,.8-.2,.4-.1,.8-.2,.8-.2,0,0,.3-.1,.7-.2,.3-.1,.8-.2,.9-.2,.2,0,.3-.1,.3-.1,.1,0,.4-.1,.9-.2,.4-.1,.9-.2,1-.2,.4-.1,4.1-1.1,4.4-1.2,.3-.1,.9-.1,1.4,0,.2,0,.5,.1,1,.3,.7,.3,1,.5,1.3,.8,.1,.1,.1,.2,.1,.2,0,0,.7,.8,2.6,3,.4,.5,1,1.1,1.4,1.6s1,1.1,1.4,1.6c1.1,1.2,1.7,2,2.3,2.8,1.3,1.5,1.5,1.8,1.5,1.9s.1,.2,.2,.2l.3,.3c0,.1,.1,.2,.2,.2,.1,.1,.1,.2,.3,.3,.1,.1,.1,.2,.2,.2,.1,.1,.8,.9,1,1.2,.1,.2,.3,.3,.3,.3,.1,.1,1.2,1.4,1.5,1.7,.5,.8,.7,1.7,.7,2.7-.1,.6-.3,1.3-.7,2.5-.2,.4-.4,1-.5,1.3-.2,.5-.6,1.7-1.2,3.5-.2,.5-.5,1.2-.6,1.5s-.4,1.1-.6,1.6-.6,1.5-.8,2.2c-.2,.7-.6,1.7-.8,2.2-.2,.5-.5,1.2-.6,1.5-1.2,.4-1.5,1.3-1.7,1.8h0Zm-.7-2.9c.2-.6,.7-2,1.3-3.4,.2-.5,.5-1.2,.6-1.6,.3-.9,.8-2.2,1.3-3.4,.2-.5,.5-1.2,.6-1.6,.2-.7,.7-2,1.3-3.4,.3-.7,.5-1.2,.8-2.3,0-.2,.1-.4,.1-.5,0-.2-.1-.3,0-.4,0-.2-.2-.6-1.5-2.1-.3-.4-.5-.7-.6-.8,0-.1-.1-.2-.2-.2-.1-.1-.4-.5-.6-.8-.3-.3-.5-.6-.5-.6v-.1s0-.1-.1-.2q-.1-.1-.1-.2s0-.1-.1-.2q-.1-.1-.1-.2v-.1s-.4-.4-.8-.9-1-1.2-1.4-1.6-.8-.9-1-1.2c-.2-.2-.5-.4-.5-.4v-.1s0-.1-.1-.2q-.1-.1-.1-.2s0-.1-.1-.2q-.1-.1-.1-.2v-.1s-.4-.4-.7-.8c-.4-.4-1-1.1-1.4-1.6s-.9-1-1-1.2-.4-.4-.4-.4v-.1s0-.1-.1-.2q-.1-.1-.1-.2s0-.1-.1-.2q-.1-.1-.1-.2s0-.1-.1-.2q-.1-.1-.1-.2v-.1s-.3-.3-.6-.7c-.3-.4-.6-.6-.6-.7l-.1-.1s-.1-.1-.1-.2l-.1-.1-3.6,8.5c-3.3,7.7-3.7,8.5-3.7,8.8-.1,.6,0,1,.2,1.6,.1,.3,.3,.6,.8,1s.9,.9,1.1,1.1c.1,.2,.4,.5,.5,.6v.1s0,.1,.1,.2q.1,.1,.1,.2s0,.1,.1,.2q.1,.1,.1,.2v.1s.4,.4,.8,.9,1,1.2,1.4,1.6c.4,.4,.8,.9,1,1.2,.2,.2,.5,.4,.5,.4v.1s0,.1,.1,.2q.1,.1,.1,.2s0,.1,.1,.2q.1,.1,.1,.2v.1s.4,.4,.7,.8c.4,.4,1,1.1,1.4,1.6s.9,1.1,1.1,1.3,.5,.4,.5,.4v.1s0,.1,.1,.2q.1,.1,.1,.2s0,.1,.1,.2q.1,.1,.1,.2v.1s.4,.4,.7,.8c1.3,1.5,2,2.4,2.1,2.4q.1,.1,.4-.3c-.3,.7,.1-.4,.4-1.3h0Zm-.8-3.3c-.1,.1-.1,.2-.2,.2s-.2,.1-.2,.1c0,.1-.7,.3-.8,.4-.3,.1-1.2-.2-1.6-.6l-.2-.2v-.1s-.1-.2-.4-.7c-.1-.2-.4-1-.5-1.3,0-.1-.1-.3-.1-.3v-.4c-.1-.5,0-1.5,.2-2,.1-.3,.5-.7,.7-.8,0,0,.1,0,.2-.1,.2-.1,.5-.1,.7-.2,.6,0,1.3,.4,1.6,.8,.3,.3,.9,1.6,.8,1.7v.1c0,.1,.1,.6,.2,.7v.5c.1,0,0,.7-.1,1.1-.1,.5-.2,.8-.3,1.1h0Zm-2-9.1c-.4,.4-.8,.6-1.4,.6-.3,0-1.2-.4-1.3-.5-.1-.1-.1-.2-.2-.2,0,0-.1-.1-.1-.2s-.1-.2-.1-.2c0,0,0-.1-.1-.2,0,0,0-.2-.1-.2-.1-.2-.3-.7-.4-1,0-.1-.1-.3-.1-.3v-.1s-.1-.3-.1-.4c0,0,0-.2-.1-.3v-.5s.1-.1,0-.2c0-.3,.1-.8,.2-1,0-.2,.4-.6,.5-.7,0,0,.2-.1,.3-.2,.2-.1,.3-.2,.7-.2s.5,0,.8,.1c.4,.2,.9,.5,1.1,.8,0,0,.1,.2,.3,.3,.2,.3,.5,.8,.5,1.2,0,.1,.1,.3,.1,.3,0,.1,.1,.3,.1,.3v.1c0,.1,.1,.7,0,.9-.1,.9-.3,1.5-.6,1.8h0Zm-1.7-9.1c-.7,.9-2.1,.8-3-.1-.1-.2-.3-.3-.3-.4,0,0,0-.2-.1-.2,0-.1-.2-.3-.2-.6-.4-1.2-.5-2.5-.1-3.3q.2-.4,.4-.6c.3-.2,.8-.5,1.3-.4,.3,0,1,.3,1.2,.6,.5,.4,.9,1.2,1.2,1.9,0,.2,.1,.3,.1,.3v.3c0,.2,.1,.7,.1,1.2,0,.4-.1,.6-.2,1-.2-.1-.3,.2-.4,.3h0Zm1.9,25.1s-1.1-1.1-1.8-2.1c-.1-.2-.4-.4-.4-.4v-.1s0-.1-.1-.2q-.1-.1-.1-.2s0-.1-.1-.2q-.1-.1-.1-.2s0-.1-.1-.2q-.1-.1-.1-.2v-.1s-.4-.4-.7-.8c-.4-.4-1-1.1-1.4-1.6s-.9-1-1-1.2-.4-.4-.4-.4v-.1s0-.1-.1-.2q-.1-.1-.1-.2s0-.1-.1-.2q-.1-.1-.1-.2s0-.1-.1-.2q-.1-.1-.1-.2v-.1s-.4-.4-.7-.8c-.4-.4-1-1.1-1.2-1.5-.4-.4-.8-.9-1-1.2-.2-.2-.4-.5-.5-.4v-.1s0-.1-.1-.2q-.4,.7-.4,.6s0-.1-.1-.2q-.1-.1-.1-.2s0-.1-.1-.2q-.1-.1-.1-.2v-.1s-.4-.4-.7-.8c-1.5-1.7-1.9-2.2-1.9-2.2l-.1-.1c0-.1-.2-.1-.5-.3-.5-.2-.6-.2-.8-.3-.4,0-.8,0-.9,.1h-.4c-.1,0-.3,.1-.3,.1-.1,0-.3,.1-.5,.1s-.3,.1-.3,.1h-.1s-.4,.1-.7,.2c0,0-.3,.1-.4,.1-.2,0-.3,.1-.3,.1h-.1s-.5,.1-.6,.1c0,0-.3,.1-.8,.2-.4,.1-.8,.2-.8,.2h-.3c-.1,0-.2,0-.3,.1h-.2s-.3,.1-.4,.1c-.3,.1-.4,.1-.4,.1h-.2s-.2,0-.3,.1c-.1,0-.2,0-.3,.1-.1,0-.3,.1-.4,.1-.2,0-.3,.1-.3,.1h-.1s-.4,.1-.7,.2c0,0-.3,.1-.4,.1-.2,0-.3,.1-.3,.1h-.1s-.5,.1-.6,.1c0,0-.3,.1-.8,.2-.4,.1-.8,.2-.8,.2h-.3c-.1,0-.2,0-.3,.1h-.2s-.3,.1-.4,.1c-.3,.1-.4,.1-.4,.1h-.3c-.1,0-.2,0-.3,.1h-.2s-.3,.1-.4,.1c-.3,.1-.4,.1-.4,.1h-.4c-.1,0-.3,.1-.3,.1-.1,0-.3,.1-.5,.1s-.3,.1-.3,.1h-.1s-.4,.1-.7,.2h-.3c0,.1,.2,.5,.3,.6v.1s0,.1,.1,.2q.1,.1,.1,.2v.1s.4,.4,.7,.8c.9,1,1.8,2.1,2.2,2.5,.5,.6,.8,.9,.8,.9,0,0,0,.1,.1,.2l.1,.1s0,.1,.1,.2q.1,.1,.1,.2v.1s.4,.4,.7,.8c.4,.4,1,1.1,1.2,1.5,.4,.4,.8,.9,1,1.2,.2,.2,.5,.4,.5,.4v.1s0,.1,.1,.2q.1,.1,.1,.2s0,.1,.1,.2q.1,.1,.1,.2v.1s.4,.4,.8,.9,1,1.2,1.4,1.6c.4,.4,.8,.9,1,1.2,.2,.2,.5,.4,.5,.4v.1s0,.1,.1,.2q.1,.1,.1,.2s0,.1,.1,.2q.1,.1,.1,.2v.1s.1,.1,.1,.2c.3,.3,.5,.4,1,.7,.5,.2,.6,.2,1.1,.2,.1,0,.3-.1,.3-.1h.1s.3-.1,.4-.1h.1s.2,0,.3-.1c.2,0,.4-.1,.5-.1s.2,0,.3-.1h.1s.3-.1,.4-.1h.1s.2,0,.3-.1c.2,0,.4-.1,.5-.1s.2,0,.3-.1h.1s.3-.1,.4-.1h.1s.2,0,.3-.1c.2,0,.4-.1,.5-.1s.2,0,.3-.1h.1s.3-.1,.4-.1h.1s.2,0,.3-.1c.2,0,.4-.1,.5-.1s.2,0,.3-.1h.1s.3-.1,.4-.1c0,0,.3-.1,.4-.1,.3-.1,.4-.1,.4-.1h.3s.3-.1,.4-.1c0,0,.3-.1,.4-.1,.4-.1,.5-.1,.7-.2h.1s.3-.1,.4-.1,.9-.2,1.2-.3c.2,0,.6-.1,.9-.2,.3-.1,.8-.2,1.2-.3,1-.2,1.1-.3,1.1-.3h.1s.2,0,.4-.1c.2,0,.5-.1,.7-.2,.2,0,.4-.1,.4-.1h.1s.2,0,.3-.1c.2,0,.3-.1,.4-.1,.3-.1,1-.4,1.1-.4q.9,.8,.8,.8h0Zm-5.2-1c-.2,.2-.4,.4-.7,.5-.2,.1-.9,.2-1,.1h-.4c-.8,.1-2.4-.6-3-1.2,0-.1-.1-.1-.1-.2,0,0-.1-.2-.3-.3-.5-.6-.7-1.4-.4-2.1,.1-.2,.4-.6,.5-.7h.1s.1-.1,.3-.2c.3-.2,.5-.2,.9-.2h1c.1,0,.9,.2,1.2,.4,.3,.1,.8,.5,1.1,.7,.9,.7,1.3,1.5,1.1,2.4,0,.4-.1,.6-.3,.8h0Zm-10.2,2.3c-.1,.1-.1,.2-.2,.2,0,0-.1,0-.1,.1-.1,.1-.5,.3-.5,.3h-.2c-.1,0-.3,.1-.4,.1h-.5c-.1,0-.4,0-.6-.1-.5-.1-.6-.1-1.2-.4-.7-.3-1.1-.6-1.3-.8,0-.1-.1-.2-.2-.1l-.1-.1s0-.1-.1-.2c-.1-.1-.1-.2-.3-.6,0-.2-.2-.5-.1-.6v-.4c0-.1,.3-.8,.4-.9,0,0,.2-.1,.2-.2,.2-.1,.7-.4,.8-.4h.1c.1,0,.7-.1,.7-.1h.2c.5,0,.7,0,1.5,.4s1.1,.5,1.4,.9c.1,.1,.1,.2,.1,.2,0,0,.1,.1,.1,.2,.1,.1,.1,.2,.2,.2,.1,.1,.3,.7,.3,.9,.2,.7,.1,1.1-.2,1.4h0Zm2.8-11c-.5,.7-1.4,1-2.8,.7-.7-.1-1.8-.7-2.1-1.1,0-.1-.1-.2-.2-.1l-.1-.1s0-.1-.1-.2c0-.1-.1-.1-.1-.2,0,0-.1-.2-.2-.3-.4-.6-.4-1.6,.2-2.1,.1-.1,.2-.2,.3-.2,.2-.1,.7-.3,.7-.3h.1c.1,0,.7-.1,1,0,1.1,.1,2.1,.6,3,1.4,.3,.3,.4,.4,.5,.8,.2,.4,.2,.6,.1,1.1,0,0-.1,.4-.3,.6h0Zm-10.1,2.6s-.1,.1-.2,.1c-.2,.1-.2,.2-.6,.3-.3,.1-.9,.2-1,.2h-.2c-.5,.1-1.9-.3-2.5-.8-.3-.2-.7-.5-.9-.7s-.5-.8-.5-1.1c-.1-.4,0-.5,.1-1,.2-.4,.2-.5,.5-.7s.5-.4,.8-.4c.1,0,.3-.1,.3-.1h1c.1,0,.4,0,.6,.1,.9,.2,1.9,.8,2.3,1.5,0,0,.1,.1,.1,.2,.2,.2,.4,.9,.4,1.4,.1,.2-.2,.9-.2,1h0Zm15.6-29.4h-.4c-.2,0-.3,.1-.6,.1-.3,.1-.4,.1-.4,.1h-.2s-.2,0-.3,.1c-.1,0-.2,0-.3,.1-.1,0-.3,.1-.4,.1-.2,0-.3,.1-.3,.1h-.1s-.4,.1-.7,.2c0,0-.3,.1-.4,.1-.2,0-.3,.1-.3,.1h-.1s-.5,.1-.6,.1c0,0-.3,.1-.8,.2-.4,.1-.8,.2-.8,.2h-.3c-.1,0-.2,0-.3,.1h-.2s-.3,.1-.4,.1c-.3,.1-.4,.1-.4,.1h-.3c-.1,0-.2,0-.3,.1h-.2s-.3,.1-.4,.1c-.3,.1-.4,.1-.4,.1h-.1s-.1,0-.3,.1c-.1,0-.2,0-.3,.1h-.1c-.1,0-.2,0-.3,.1-.2,0-.3,.1-.4,.1s-.2,0-.3,.1c0,0-.5,.1-.6,.1,0,0-.3,.1-.4,.1-.2,0-.3,.1-.3,.1h-.1s-.5,.1-.6,.1c0,0-.3,.1-.8,.2-.4,.1-.8,.2-.8,.2h-.3c-.1,0-.2,0-.3,.1h-.2s-.3,.1-.4,.1c-.3,.1-.4,.1-.4,.1h-.2c-.1,0-.2,0-.3,.1-.4,.1-.8,.3-1.2,.5-.2,.1-.4,.3-.4,.3h-.1s-.1,0-.2,.1l-.1,.1-.7,.7c-.2,.1-.8,1.5-3.2,7.5-1.7,4-3.2,7.4-3.2,7.5-.7,1.6-.8,1.8-.7,1.8h.1s.2,0,.3-.1c.2,0,.3-.1,.4-.1s.3-.1,.4-.1c.2,0,.3-.1,.3-.1h.2s.2,0,.3-.1c.1,0,.2,0,.3-.1,.1,0,.3-.1,.4-.1,.2,0,.3-.1,.3-.1h.1s.4-.1,.7-.2c0,0,.3-.1,.4-.1,.2,0,.3-.1,.3-.1h.1s.5-.1,.6-.1c0,0,.3-.1,.8-.2,.4-.1,.8-.2,.8-.2h.3c.1,0,.2,0,.3-.1h.2s.3-.1,.4-.1c.3-.1,.4-.1,.4-.1h.3c.1,0,.2,0,.3-.1h.2s.3-.1,.4-.1c.3-.1,.4-.1,.4-.1h.4c.1,0,.3-.1,.3-.1,.1,0,.3-.1,.5-.1s.3-.1,.3-.1h.1s.4-.1,.7-.2c0,0,.3-.1,.4-.1,.2,0,.3-.1,.3-.1h.1s.5-.1,.6-.1c0,0,.3-.1,.8-.2,.4-.1,.8-.2,.8-.2h.3c.1,0,.2,0,.3-.1h.2s.3-.1,.4-.1c.3-.1,.4-.1,.4-.1h.3c.1,0,.3-.1,.3-.1,.1,0,.3-.2,.5-.2s.2-.1,.3-.2c.1,0,.5-.4,.7-.5,.3-.2,.3-.3,.4-.5,.1-.1,.1-.2,.2-.3,.5-.2,7.6-16.7,7.6-16.7h0Zm-10.8,11.5c-.2,.3-.6,.8-.8,1-.3,.2-.8,.7-.9,.8,0,0-.1,0-.2,.1-.2,.1-1.1,.5-1.1,.5,0,0-.3,.1-.4,.1h-.3c-.3,.1-.8-.1-1-.2l-.2-.2c-.3-.5-.4-.8-.3-1.3,0-.2,.1-.5,.1-.6,.2-.4,.7-1.1,1-1.4,.1-.1,.2-.1,.2-.1,0,0,.5-.5,.7-.6,.1,0,.2-.1,.2-.1,.1,0,.1-.1,.2-.1,0,0,.2-.1,.3-.2,.2,0,.3-.2,.3-.2,.2,0,.8-.3,.9-.2h.3s.1,.1,.2,0c.2,0,.8,.2,.9,.4s.4,.7,.4,.8v.2c0,.2-.2,.8-.2,1,0-.1-.1,.1-.3,.3h0Z"/></g></g><path class="cls-44" d="M529.22,102.12c0,21.25-7.66,40.72-20.36,55.79-13.57,16.09-32.9,27.18-54.81,30.07-2.37,.32-4.78,.53-7.21,.65-1.4,.06-2.81,.1-4.23,.1-3.84,0-7.63-.25-11.34-.74-5.1-.66-10.07-1.78-14.85-3.29-6.51-2.06-12.68-4.87-18.42-8.32-.73-.44-1.46-.89-2.17-1.36-4.07-2.61-7.9-5.56-11.46-8.8-.38-.34-.75-.69-1.13-1.05-1.12-1.05-2.21-2.14-3.28-3.25-14.84-15.55-23.96-36.61-23.96-59.8,0-18.65,5.89-35.92,15.93-50.06,15.69-22.12,41.5-36.55,70.68-36.55,36.51,0,67.75,22.6,80.49,54.56,3.95,9.91,6.12,20.72,6.12,32.04Z"/><path class="cls-40" d="M523.2,101.69c0,21.25-7.66,40.72-20.36,55.79-13.57,16.09-32.9,27.18-54.81,30.07-2.37,.32-4.78,.53-7.21,.65-1.4,.06-2.81,.1-4.23,.1-3.84,0-7.63-.25-11.34-.74-5.1-.66-10.07-1.78-14.85-3.29-6.51-2.06-12.68-4.87-18.42-8.32-.73-.44-1.46-.89-2.17-1.36-4.07-2.61-7.9-5.56-11.46-8.8-.38-.34-.75-.69-1.13-1.05-1.12-1.05-2.21-2.14-3.28-3.25-14.84-15.55-23.96-36.61-23.96-59.8,0-18.65,5.89-35.92,15.93-50.06,15.69-22.12,41.5-36.55,70.68-36.55,36.51,0,67.75,22.6,80.49,54.56,3.95,9.91,6.12,20.72,6.12,32.04Z"/><path class="cls-32" d="M433.43,36.32c-5.06,1.86-8.18,5.5-10.99,9.47-8.12,11.47-12.68,17.9-12.51,26.91,.13,7.08,3,6.06,6.44,20.84,1.55,6.65,2.91,12.74,2.27,20.46-.77,9.24-3.55,10.49-3.79,16.29-.48,11.94,10.42,28.94,25.77,29.94,15.8,1.03,28.89-15.39,29.94-28.42,1.07-13.36-10.88-18.87-8.34-34.11,1.44-8.64,5.63-8.97,6.82-18.57,1.57-12.67-4.41-22.8-6.44-26.15-2.11-3.47-11.71-18.19-23.49-17.81-2.78,.09-5.33,1.01-5.68,1.14Z"/><g><path d="M432.46,64.81h0l.03,.03-.02-.03Zm0,0h0l.03,.03-.02-.03Zm0,0h0l.03,.03-.02-.03Zm0,0h0l.03,.03-.02-.03Zm0,0h0l.03,.03-.02-.03Zm0,0h0l.03,.03-.02-.03Zm0,0h0l.03,.03-.02-.03Zm75.27,71c-.15-1.12-.48-2.19-.99-3.19-.89-1.76-1.77-3.52-2.78-5.22-.48-.8-.88-1.69-1.11-2.6-.32-1.3-.75-2.55-1.31-3.77-.44-.96-1.15-1.72-2.05-2.22-.59-.32-1.09-.7-1.56-1.17-.16-.16-.37-.29-.57-.36-.49-.17-.99-.3-1.53-.26-.32,.02-.65-.04-.98-.1-1.38-.29-2.7-.8-4.01-1.32-.55-.22-1.11-.45-1.69-.6-1.4-.36-2.81-.72-4.23-.99-1.63-.31-3.11-.86-4.34-2.02-.14-.13-.32-.24-.5-.29-.78-.23-1.32-.85-2.02-1.22-.41-.22-.8-.47-1.17-.73-.36-.25-.77-.48-1.03-.82-1.29-1.63-2.77-3.06-4.44-4.3-.42-.31-.81-.65-1.21-.98-.21-.17-.29-.37-.11-.6,.33-.4,.64-.83,1.02-1.18,.21-.19,.38-.38,.48-.62,.28-.71,.63-1.37,1.26-1.84,.06-.04,.08-.14,.14-.19,.14-.12,.27-.28,.44-.34,.81-.25,1.18-.9,1.44-1.61,.24-.64,.57-1.2,1.03-1.71,.41-.46,.99-.75,1.26-1.35,.28-.62,.8-1.15,.57-1.92,0-.04-.01-.08,0-.11,.21-.4-.04-.75-.23-1.01-.29-.38-.26-.82-.39-1.22-.04-.12-.03-.3,.04-.39,.32-.4,.26-.86,.25-1.32-.01-.62-.08-1.24-.02-1.85,.08-.77,.27-1.52,.39-2.28,.25-1.69,.72-3.36,.52-5.1,0-.06-.02-.13,.01-.17,.26-.33,.08-.71,.12-1.06,.06-.65,.03-1.31,0-1.96-.01-.28-.09-.57-.21-.82-.09-.2-.17-.37-.12-.6,.04-.19,.1-.4,.05-.57-.1-.37,.09-.57,.41-.73-.18-.38-.34-.73-.5-1.08-.04-.1-.09-.22-.08-.33,.06-.57-.32-1.13-.05-1.71,.02-.05-.03-.14-.05-.22-.17-.62-.24-1.24,0-1.87,.07-.17,.06-.38,.07-.57,.01-.36,.02-.72,.03-1.09,0-.38,.01-.77,.02-1.15,0-.19,0-.39-.06-.57-.28-.86-.8-1.58-1.37-2.26-.39-.48-.78-1-1.37-1.29-.12-.06-.17-.26-.28-.36-.26-.22-.51-.55-.81-.6-.33-.06-.41-.25-.48-.47-.09-.26,.06-.44,.29-.55,.2,.15,.39,.29,.65,.49,0-.2,.02-.3-.02-.37-.24-.42-.48-.83-.74-1.23-.17-.26-.32-.58-.57-.71-.42-.22-.6-.59-.8-.95-.17-.3-.27-.65-.68-.72-.06,0-.11-.14-.15-.22-.5-.87-1-1.73-1.47-2.61-.22-.4-.35-.84-.52-1.26-.02-.07-.01-.15,0-.23,.07-.55-.09-1-.52-1.37-.13-.11-.22-.27-.31-.42-.19-.32-.33-.66-.54-.95-.5-.68-.64-1.49-.7-2.28-.04-.55-.2-1.06-.4-1.55-.29-.71-.66-1.4-1.09-2.04-.69-1.04-1.44-2.04-2.17-3.06-.57-.8-1.33-1.45-1.77-2.35-.02-.05-.06-.1-.1-.14-.48-.4-.69-.95-.9-1.51-.07-.19-.2-.37-.33-.52-.46-.55-.94-1.09-1.4-1.64-.36-.42-.71-.85-1.06-1.27-.02-.03-.06-.05-.09-.07-.69-.38-1.28-.92-2.04-1.17-.08-.03-.14-.11-.19-.17-.11-.13-.18-.3-.31-.38-.6-.37-1.13-.9-1.91-.88-.07,0-.14-.07-.21-.09-.62-.19-1.13-.65-1.78-.78-.2-.04-.11-.23-.28-.39-.22-.21-.47-.29-.66-.33-2.88-1.06-7.5-2.36-13.29-2.31-5.11,.05-9.25,1.13-11.99,2.08-.13,.1-.33,.26-.58,.44-.69,.51-1.24,.83-1.43,.96-.93,.6-1.8,1.31-2.69,1.98-1.39,1.06-2.66,2.28-4.26,3.05-.03,.01-.06,.05-.09,.08-.35,.42-.88,.6-1.18,1.13-.31,.53-.85,.92-1.29,1.38-.94,.99-1.89,1.98-2.82,2.97-1.08,1.14-2.04,2.37-2.87,3.69-.44,.7-.85,1.42-1.25,2.15-.17,.3-.31,.63,0,.96,.2-.05,.38-.09,.58-.14,.13,.13,.25,.27,.4,.42-.16,.36-.37,.7-.46,1.07-.26,1.06-.47,2.13-.71,3.2-.03,.15-.07,.3-.13,.44-.53,1.3-.52,2.65-.42,4.01,.02,.32,.06,.65-.02,.95-.09,.31-.18,.61-.28,.91-.11,.32-.23,.62-.37,.93-.17,.4-.5,.74-.67,1.14-.17,.4-.21,.85-.33,1.28-.22,.81-1.03,1.18-1.43,1.85-.02,.03-.06,.07-.09,.07-.28-.04-.29,.19-.38,.35-.21,.34-.37,.73-.82,.81v.31c-.5,.35-.85,.77-1.15,1.24-.02,.03,0,.12,.02,.15,.15,.16,.05,.28-.05,.4-.14,.18-.27,.38-.42,.55-.74,.83-1.11,1.84-1.42,2.86-.1,.32-.23,.6-.43,.85-.22,.28-.37,.61-.73,.77-.1,.04-.18,.21-.2,.33-.11,.5-.16,1.02-.31,1.51-.17,.59,.42,.78,.54,1.21,.01,.05,.12,.07,.18,.11,.16,.11,.42,.22,.44,.36,.02,.21,.11,.34,.22,.5,.16,.26,.23,.55,.09,.87-.23,.55-.47,1.11-.6,1.69-.14,.59-.69,.99-.67,1.63,0,.03-.03,.07-.06,.1-.66,.6-.75,1.43-.79,2.22-.05,.94,.06,1.89,.1,2.83,0,.11,.02,.25,.09,.32,.22,.22,.18,.49,.19,.76,0,.52,.02,1.03,.02,1.55,0,.09-.03,.19-.06,.28-.1,.37-.22,.73-.31,1.1-.1,.4-.24,.75-.5,1.09-.22,.28-.33,.64-.5,.96-.14,.25-.02,.64-.4,.77,0,0,.03,.12,.05,.19-.15,.01-.26,.02-.38,.04,.07,.42,.13,.79,.2,1.21,.11,.07,.25,.17,.45,.3-.12,.07-.19,.11-.22,.13,.16,.72,.37,1.42,.45,2.13,.1,.89,.44,1.62,1.1,2.21,.14,.13,.31,.26,.38,.42,.25,.65,.34,1.36,.68,1.98,.04,.07-.04,.21-.06,.31,.38,.27,.72,.58,1.13,.77,.53,.25,1.07,.59,1.73,.4,.08-.02,.19,.04,.28,.04,.31,.01,.62,.04,.91,0,.66-.08,1.32-.21,1.98-.31,.11-.02,.23,0,.34-.01,.24-.03,.49-.04,.72-.11,.6-.19,1.23,.21,1.26,.82,.02,.29,.06,.57,.05,.85-.01,.3,.11,.5,.36,.65,.09-.06,.17-.16,.27-.19,.66-.22,1.32,.04,1.97,.02,.07,0,.15,.06,.2,.11,.17,.19,.21,.84,.06,1.05-.21,.31-.6,.45-.95,.32-.14-.05-.27-.14-.41-.21-.05-.02-.11-.02-.15-.03-.09,.13-.16,.24-.31,.47-.12-.16-.2-.27-.28-.37l-.08,.04c.11,.43,.23,.87,.34,1.3-.22,.19-.43,.43-.68,.6-.2,.14-.44,.21-.68,.27-.34,.08-.52-.2-.74-.38-1.06-.88-2.26-1.29-3.64-1.19-.95,.07-1.78,.52-2.6,.92-1.2,.6-2.07,1.59-2.88,2.63-.9,1.14-1.83,2.24-3.12,2.98-1,.57-1.95,1.23-2.93,1.84-1.6,.99-3.04,2.19-4.48,3.39-1.34,1.11-2.59,2.32-3.74,3.63-.43,.49-.84,1.01-1.28,1.49-.52,.57-1.08,1.1-1.61,1.66-.99,1.07-1.56,2.34-1.68,3.79-.02,.27-.13,.46-.33,.65-.23,.22-.47,.46-.62,.73-.37,.69-.7,1.41-1.04,2.12-.26,.54-.5,1.08-.76,1.62-.4,.79-.79,1.59-1.23,2.35-.57,.98-1.19,1.93-1.77,2.9-.3,.49-.6,.98-.87,1.49-.38,.74-.67,1.52-1.09,2.23-.29,.49-.55,1-.8,1.51,1.15,1.21,2.34,2.38,3.55,3.52,.1-.27,.3-.5,.5-.54,.22-.04,.37,.05,.47,.25,.11,.22,.29,.44,.32,.67,.03,.24-.03,.48-.07,.75,3.86,3.51,8.01,6.7,12.41,9.53,.77-.51,1.56-1,2.34-1.51,.12-.08,.26-.14,.38-.21,.28,.34,.31,.69,.19,1.06-.13,.4-.2,.8-.39,1.19-.13,.27-.15,.6-.16,.93,6.35,3.82,13.18,6.91,20.39,9.16,5.05,1.57,10.28,2.73,15.64,3.43h5.4c6.42,0,12.84,0,19.26-.01,1.38-.18,2.76-.39,4.12-.64,22.03-3.91,41.41-15.51,55.25-31.92-.28-.86-.53-1.74-.65-2.65Zm-103.28-41.42s-.05,.22-.12,.3c-.22,.24-.46,.46-.69,.69-.09,.09-.17,.19-.26,.29s-.17,.2-.28,.25c-.28,.12-.57,.21-.86,.31-.09,.03-.24,.03-.27,.09-.26,.53-.9,.43-1.28,.77-.22,.2-.5,.11-.72,.04-1.13-.39-2.12-.99-2.72-2.08-.18-.33-.15-.62-.01-.94,.13-.3,.26-.59,.69-.57,.34,.02,.68-.04,1.02-.08,.37-.05,.74,.06,1.1-.16,.17-.11,.44-.06,.67-.1,.19-.04,.38-.11,.62-.18,.38-.65,1.35-.54,1.9-.31,.09,.04,.16,.12,.24,.13,.64,.07,.64,.06,1.06,.65-.08,.28-.38,.56-.1,.9Zm-28.94,43.01s-.04-.08-.04-.09c.04-.03,.09-.04,.13-.06,.01,.03,.03,.06,.05,.12-.05,.01-.09,.04-.14,.04Zm88.59-68.28s.09,.04,.14,.06c-.02,.04-.05,.09-.08,.14-.06-.04-.1-.07-.15-.09,.03-.04,.06-.1,.09-.11Zm-21.39-27.1s0-.03,.01-.04c0-.03,.02-.05,.04-.07,0-.01,.02-.03,.03-.04,0,0,.01-.01,.02-.02,0,0,0-.01,.01-.01,.02-.02,.05-.05,.07-.06,.06-.05,.12-.08,.18-.12,.02-.01,.04-.03,.06-.04,0,0,0-.01,0-.02,.01,0,.02-.01,.03-.01l.02-.03s.05-.08,.08-.12c.01-.03,.03-.06,.05-.09,.02-.04,.05-.08,.08-.13,.03-.06,.07-.11,.11-.18-.1,.42-.11,.44-.34,.55l-.02,.03h-.01c0,.06,0,.1,0,.13,0,.01,0,.03-.01,.04,0,.01-.01,.02-.01,.03-.01,.02-.02,.04-.04,.06-.01,.01-.03,.03-.04,.04-.08,.07-.19,.11-.29,.16h-.02s0-.02,0-.04Zm-7.5,8.99c.01,.08,.02,.17,.02,.24,0,.05,0,.1,0,.15-.01,.14-.04,.27-.08,.39-.04,.14-.09,.27-.13,.4-.01,.04-.03,.08-.04,.12-.01-.05-.02-.09-.03-.14,0-.05,0-.09,0-.14,0-.36,.18-.69,.28-1.04Zm-4.51,10.07s.05,.02,.07,.03c-.02,.07-.04,.15-.08,.2-.04,.06-.11,.09-.17,.13-.03-.03-.05-.06-.07-.08,.08-.09,.17-.19,.25-.29Zm3.53,8.16c-.13-.09-.27-.15-.37-.26-.93-1.05-2.15-1.6-3.45-2.02-.33-.11-.66-.21-.97-.42,.24,.05,.49,.1,.74,.16h0c-.13-.08-.25-.18-.38-.24-.02,0-.04-.01-.06-.02-.58-.14-1.17-.26-1.75-.38-.2-.04-.41-.09-.6-.17,1.97,.14,3.91,.43,5.61,1.54,.48,.32,.89,.7,1.2,1.19-.5-.31-.86-.81-1.45-.98,.5,.54,1,1.06,1.49,1.59Zm-5.86-.19s-.03,.08-.04,.12c-.2-.04-.41-.07-.61-.11,.27-.24,.44-.05,.65,0Zm1.11,1.46c.07-.2,.13-.4,.21-.6,.17-.48,.52-.57,.86-.19,.22,.24,.39,.52,.55,.8,.14,.28,.32,.46,.63,.54,.49,.12,.95,.28,1.47,.04,.17-.08,.41,.02,.66,.04,.04-.47,.34-.66,.78-.68-.02-.19-.04-.34-.06-.5h0l-.02-.04h0l-.02-.04s.01,.01,.02,.02h0s0,.03,0,.05c0,.01,.01,.03,.02,.04h0c.04,.07,.09,.14,.14,.22,.06,.09,.11,.19,.15,.3,.5,1.57,.51,3.14,.05,4.73-.11,.37-.24,.73-.38,1.08-.69,1.64-1.81,2.98-3.37,3.98-1.53,.98-3.22,1.46-5.05,1.46-2.58,0-4.85-.8-6.77-2.55-.91-.83-1.61-1.82-2.14-2.93-.1-.2-.17-.41-.21-.64,.59,.88,1.03,1.86,1.94,2.46,.22-.11,.41-.22,.62-.29,.25-.09,.4-.24,.44-.49,.05-.28,.11-.51,.33-.75,.27-.29,.38-.73,.58-1.11,.44-.84,1.08-1.37,2.08-1.38,.25,0,.5-.03,.75,0,.17,.01,.38,.03,.48,.14,.42,.43,.94,.32,1.42,.26,.23-.03,.43-.33,.58-.6-.25,.16-.5,.32-.83,.52-.01-.18-.05-.27-.02-.32,.16-.29,.06-.51-.16-.72-.29-.29-.47-.61-.23-1.02,.3,.03,.59,.09,.87,.08,.26-.01,.52-.09,.77-.19,.13-.05,.23-.19,.31-.31,.02-.03-.06-.13-.09-.2h0c-.05,0-.1,.03-.15,.03-.06,0-.12-.04-.17-.07,0,0,0-.05,0-.05,.06,0,.13-.03,.19-.01,.05,.01,.08,.06,.13,.09h0c0-.1,.01-.18,.06-.24,.01-.02,.03-.04,.04-.05,.06-.06,.16-.1,.27-.11,.48-.07,.95-.18,1.44-.19,.07,0,.14,0,.19-.02,.32-.06,.5-.26,.62-.58Zm4.75-1.26h0Zm.1,.19c.06,.15,.13,.3,.2,.46-.04-.04-.08-.08-.11-.12-.04-.04-.07-.09-.09-.13,0-.01-.01-.02-.02-.04h0s-.03-.07-.03-.1v-.02s0-.02,0-.03c0-.02,0-.04,0-.07,0-.03,0-.06,0-.09h0s-.01-.03-.02-.03c0,0,.01,0,.02,.01h0c.02,.06,.04,.11,.06,.16Zm.3-.09s.06-.1,.09-.09c.07,.01,.14,.05,.26,.1-.16,.11-.2,.14-.24,.17-.04-.06-.09-.11-.11-.18Zm-20.14,2.56s.02-.09,.02-.13c.47-.07,.94-.14,1.41-.2,.06,0,.13,.09,.2,.14-.05,.06-.1,.18-.16,.19-.49,.01-.98,0-1.47,0Zm48.5,3.18c-.1,1.77-.26,3.54-.49,5.3-.15,1.16-.47,2.3-.73,3.45-.31,1.38-.63,2.75-.96,4.12-.54,2.27-1.33,4.43-2.57,6.43-.72,1.17-1.55,2.26-2.41,3.32-.62,.75-1.33,1.38-2.04,2.02-.11,.1-.26,.24-.27,.36-.02,.47-.27,.81-.49,1.2,.44-.32,.88-.64,1.36-.98,.22,.39,.15,.74,.12,1.07-.05,.71-.13,1.42-.2,2.13-.02,.17-.07,.34-.1,.51-.02,.11-.07,.24-.04,.34,.2,.59,.14,1.17-.02,1.75-.02,.08,.02,.18,.05,.27,.03,.09,.12,.2,.1,.26-.06,.16-.07,.31-.04,.45,.04,.34,.25,.65,.29,.99,.06,.47,.16,.94,.29,1.39,.16,.57,.41,1.09,.77,1.55,.14,.18,.29,.35,.46,.51,.11,.1,.19,.25,.3,.35,.11,.1,.24,.23,.38,.25,.51,.09,1.02,.16,1.53,.19,.7,.04,.75,.08,.99,.73,.12,.32,.32,.6,.5,.9,.15,.25,.34,.47,.46,.73,.32,.68,.7,1.34,.79,2.1,.01,.11,.06,.27,.14,.31,.52,.28,.35,.81,.47,1.23,.03,.09-.05,.22-.1,.32-.52,1.1-1.2,2.09-2.09,2.9-.38,.35-.71,.72-1,1.11-.64,.86-1.08,1.84-1.35,2.93-.22,.94-.5,1.87-.76,2.79-.05,.16-.14,.32-.25,.44-.34,.37-.71,.71-1.07,1.06-.12,.12-.23,.27-.37,.36-.6,.33-.96,.88-1.36,1.4-.6,.78-1.26,1.51-1.86,2.28-.36,.45-.66,.95-.99,1.42-.22,.31-.44,.63-.7,.91-.85,.92-1.79,1.77-2.58,2.74-1.42,1.75-2.79,3.56-4.13,5.37-.92,1.24-1.76,2.54-2.62,3.82-.13,.19-.26,.4-.3,.62-.16,.76-.6,1.37-1.02,2-.73,1.09-1.48,2.17-1.96,3.4-.11,.28-.21,.57-.35,.95-.09-.17-.16-.23-.17-.31-.25-2.3-.55-4.6-.73-6.91-.24-2.87-.39-5.74-.57-8.61-.08-1.27-.11-2.55-.18-3.82-.07-1.42-.37-2.8-.81-4.14-.42-1.28-.92-2.54-1.43-3.79-.39-.94-1.07-1.69-1.74-2.45-.61-.7-1.22-1.4-1.82-2.1-.71-.84-1.42-1.68-2.13-2.53-.32-.38-.72-.63-1.18-.8-.64-.22-1.27-.47-1.66-1.09-.05-.08-.19-.09-.3-.13-.29-.1-.54-.25-.57-.58-.04-.35,.18-.6,.59-.74,.11-.04,.24-.05,.32-.12,.7-.55,1.57-.67,2.35-1.01,.43-.19,.85-.32,1.3-.41,.09-.01,.18-.07,.24-.13,.19-.2,.44-.17,.68-.21,.66-.1,1.36-.22,1.87-.69,.21-.19,.33-.58,.34-.88,.02-.61,.33-1.05,.72-1.46,.09-.09,.14-.22,.21-.32,.13-.19,.24-.4,.4-.57,.2-.21,.44-.36,.77-.3,.7,.12,1.4,.22,2.1,.33,.06,0,.12,.02,.17,0,.79-.14,1.59-.26,2.37-.45,.3-.07,.56-.32,.83-.49,.08-.05,.15-.14,.23-.17,.88-.32,1.65-.82,2.37-1.41,.37-.3,.8-.52,1.2-.77-.01-.05-.02-.1-.04-.15-.26,.01-.51,.04-.76,.03-1.06,0-2.12-.02-3.18-.04-.15,0-.36,0-.42-.29,.23-.05,.45-.1,.77-.17-.53-.37-.93-.76-1.54-.73-.13,0-.27-.03-.39-.09-.78-.43-1.55-.87-2.32-1.31-.11-.07-.22-.16-.32-.25-.34-.36-.68-.72-1.03-1.08-.11-.11-.22-.22-.35-.29-.83-.45-1.43-1.09-1.78-1.97-.11-.28-.27-.55-.43-.8-.06-.09-.22-.16-.33-.16-.07,0-.17,.13-.21,.22-.03,.07,0,.17,0,.31-.6-.85-1.18-1.64-1.72-2.45-.13-.19-.19-.39-.45-.48-.15-.05-.25-.27-.36-.43-.11-.16-.19-.34-.29-.5-.2-.32-.4-.64-.6-.95-.55-.87-1.08-1.75-1.48-2.7-.17-.4-.27-.84-.38-1.27-.07-.26,.4-1.15,.65-1.21,.15-.03,.34,.02,.48,.1,.52,.28,1,.09,1.13-.48,.04-.18,.09-.37,.12-.52-.29-.1-.54-.19-.8-.27-.04-.01-.08-.04-.11-.03-.86,.2-.97-.56-1.31-1.02-.02-.03-.05-.06-.1-.13-.11,.09-.21,.18-.29,.24-.33-.08-.64-.2-.95-.23-.57-.04-.94-.4-1.34-.73-.46-.37-.91-.76-1.39-1.1-.21-.15-.37-.31-.48-.55-.07-.17-.23-.3-.32-.47-.19-.37-.49-.74-.5-1.11-.02-.51-.11-.94-.43-1.37,.27-.21,.54-.4,.37-.78,.21-.08,.28-.17,.04-.32-.01,0,.06-.22,.14-.3,.05-.06,.16-.06,.31-.21-.15-.06-.29-.12-.48-.19,.23-.21,.35-.32,.47-.43-.17-.45-.24-.49-.86-.53-.11-.53-.21-1.07-.31-1.57,.41,.28,.86,.61,1.33,.9,.47,.29,.96,.57,1.47,.81,.5,.24,1.02,.41,1.62,.65-.22,.12-.34,.19-.5,.29,.3,.26,.63,.3,.95,.28,1.31-.11,2.63-.14,3.92-.39,3.09-.6,5.47-2.23,6.85-5.14,.03-.06,.06-.13,.09-.19,.08-.17,.15-.33,.24-.49,.05-.1,.12-.22,.21-.26,.86-.37,1.17-1.13,1.36-1.94,.13-.58,.19-1.18,.22-1.77,.02-.53-.27-.8-.8-.88-.09,.19-.19,.38-.29,.57-.04,0-.09,0-.13,0-.08-.33-.2-.65-.23-.98-.02-.17,.09-.38,.19-.54,.06-.09,.22-.14,.35-.18,1-.33,2.03-.47,2.98-.55-.68,0-1.44-.02-2.21,0-.5,.02-.99-.24-1.19-.69-.04-.09-.06-.21-.13-.25-.46-.25-.56-.77-.86-1.14-.19-.23-.21-.6-.3-.91-.06-.2-.1-.41-.16-.65-.2,.05-.36,.08-.43,.1-.39-.4-.74-.76-1.09-1.12-.01,0-.03,0-.04,0-.03,.07-.05,.14-.1,.19-.02,.02-.11-.03-.17-.15,.09-.01,.18-.03,.27-.05,0,0,0-.01,.01-.02-.33-.24-.7-.39-1.11-.5-.42-.11-.93-.15-1.22-.58-.04-.06-.12-.09-.19-.12-.39-.2-.45-.33-.2-.7,.34-.51,.72-1,1.1-1.49,.22-.29,.46-.56,.46-.97,0-.15,.13-.33,.25-.44,.57-.52,.75-1.24,1.06-1.9,.33-.7,.58-1.43,.95-2.1,.52-.95,.85-1.97,1.14-3.01,.06-.22,.17-.42,.26-.63,0-.02,0-.04,.01-.06h0v.04h-.02c-.02,.12-.04,.22-.06,.32-.02,.12-.04,.25-.07,.37,.03,0,.06,.02,.09,.03,.16-.55,.35-1.08,.45-1.64,.11-.58,.09-1.18,.19-1.77,.1-.56,.34-1.06,.89-1.34-.11-.18-.32-.37-.3-.53,.03-.24,.21-.47,.34-.7,.06-.11,.18-.2,.24-.32,.25-.43,.48-.87,.74-1.29,.07-.11,.17-.24,.28-.28,.3-.11,.47-.31,.57-.6,.06-.16,.09-.15,.33,0,.14-.13,.27-.28,.43-.39,.23-.17,.42-.33,.57-.61,.12-.24,.44-.41,.7-.55,.19-.11,.43-.14,.68-.22-.06-.09-.1-.14-.14-.2q.28-.14,.53,.11c.37-.34,.8-.56,1.28-.66h-.01v-.02s.01,0,.01,.01h.01c.09,.06,.18,.13,.24,.1,.17-.07,.33-.18,.48-.3,.22-.18,.47-.29,.76-.29h0c.2-.05,.4-.09,.62-.14,.23,.27-.24,.38-.15,.67,.33-.03,.31-.47,.65-.54-.09,.21-.17,.39-.29,.7,.22-.13,.32-.2,.43-.26,.15-.08,.33-.24,.46-.2,.42,.12,.69-.09,.98-.31,.06-.04,.14-.05,.27-.1,.01,.14,.03,.25,.04,.39,.39,.03,.49-.47,.87-.5-.14,.24-.28,.47-.42,.69l.06,.06c.13-.14,.26-.28,.4-.43,.06,.04,.11,.09,.18,.15,.5-.3,.65-.85,.94-1.33,.03,.33-.41,.74,.24,.82-.11,.38-.2,.7-.29,1.01,.4-.17,.8-.34,1.24-.54-.06,.21-.12,.38-.18,.57,.09-.04,.16-.07,.26-.11,.01,.13,.02,.25,.04,.38,.28-.09,.53-.16,.83-.25,.04,.39,.22,.64,.52,.82,.12,.07,.17,.29,.27,.48,.09-.02,.23-.06,.37-.09,.37,.24,.71,.52,1.15,.68,.19,.06,.47,.38,.49,.55,.03,.27,.47,.3,.3,.63,0,.02,.13,.13,.21,.15,.29,.07,.39,.4,.34,.52-.19,.48,.09,.67,.41,.88,.04,.03,.06,.09,.11,.16-.1,.06-.2,.11-.3,.17,.02,.05,.04,.11,.07,.14,.28,.26,.45,.56,.46,.95,0,.29,.11,.55,.3,.79,.13,.17,.16,.42,.22,.64,.14,.53,.29,1.06,.39,1.61,.1,.52,.18,1.05,.19,1.58,.01,.34,.17,.64,.1,1.02-.06,.31,.25,.66,.33,1.01,.1,.43,.13,.87,.22,1.3,.09,.43,.2,.86,.3,1.29,.14,.6,.26,1.2,.39,1.81,.03,.13,.02,.3,.1,.38,.52,.57,.48,1.32,.71,1.99,.1,.29,.16,.59,.24,.89,.05,.19,.09,.37,.14,.55,.07,.26,.13,.52,.22,.78,.12,.36,.26,.72,.39,1.08,.03,.09,.07,.19,.13,.26,.47,.57,.8,1.21,1.08,1.88,.22,.52,.59,.98,.89,1.47l.4,.65c-.24,.04-.4,.06-.6,.1-.27-1.13-.71-2.11-1.62-2.83-1.14-.9-2.32-1.4-3.04-1.19,.32,.11,.55,.2,.79,.29,1.28,.5,2.38,1.22,3.06,2.44,.26,.46,.4,.99,.63,1.57h2.32c-.04,.34-.25,.41-.46,.44-.52,.07-1.03,.14-1.55,.17-.36,.02-.43,.05-.42,.37,0,.09,0,.18,0,.27-.01,2.04-.72,3.85-1.82,5.55-.1,.16-.18,.32-.27,.49,.14-.15,.3-.29,.41-.45,1.04-1.55,1.66-3.26,1.89-5.12,.02-.15,.06-.29,.09-.45,.12-.03,.22-.06,.31-.06,.54-.03,.67,.05,.69,.6,.04,1.18,.11,2.36,.05,3.53Zm-27.31-2.27c-.05-.03,0-.36,.09-.45,.08-.08,.3-.03,.55-.04,.03-.06,.09-.17,.19-.35,.06,.14,.12,.22,.13,.3,.06,.67-.11,.9-.85,1.22-.03-.22,.18-.48-.11-.67Zm-3.21-7.99l.03,.02-.02-.03h0Zm0,0h0l.03,.03-.02-.03Zm0,0h0l.03,.03-.02-.03Zm0,0h0l.03,.03-.02-.03Zm0,0h0l.03,.03-.02-.03Zm0,0h0l.03,.03-.02-.03Zm0,0h0l.03,.03-.02-.03Z"/><path d="M444.19,41.59q.02,.44-.52,.67c.22-.27,.39-.47,.55-.67h-.03Z"/><path d="M434.26,69.27h0c.1,.23,.19,.44,.29,.66h.01l-.3-.66Z"/><path d="M456.62,69.33c.03-.39-.17-.68-.38-.94-.79-.96-1.88-1.4-3.05-1.59-.74-.12-1.5-.11-2.25-.15-.58-.03-1.11-.17-1.66-.6,.43-.12,.77-.21,1.11-.3,0-.03,0-.06-.01-.09h-.9s-.04,0-.05,.01h0c-.29,.11-.58,.21-.87,.32-1.04,.37-2.07,.76-2.97,1.42-.19,.14-.32,.25-.32,.55,0,.49-.15,.98-.45,1.39-.11,.14-.14,.34-.2,.5,.15,.11,.26,.18,.29,.2,.03,.28,0,.51,.09,.67,.09,.16,.25,.42,.53,.17-.06-.07-.12-.14-.21-.23,.22-.09,.4-.16,.56-.22,.7,.44,.78,.39,.94-.37,.07-.34,.23-.69,.42-.99,.09-.14,.34-.18,.53-.27,.18,.45,.31,.83,.48,1.2,.24,.5,.64,.77,1.21,.71,.52-.06,1.03-.14,1.54-.22,.84-.14,1.16-.46,1.32-1.28,.05-.26,.09-.52,.15-.85,.33,.1,.62,.15,.87,.27,.5,.24,.58,.58,.26,1.03-.12,.17-.28,.32-.42,.48,.41-.09,.77-.23,1.12-.37,.33-.14,.65-.21,.99,.02,.22,.15,.47,.26,.72,.34,.22,.08,.47,.21,.72,.02-.04-.28-.11-.55-.09-.8Zm-6.75-.88h0c.08-.19,.19-.32,.49-.24-.1,.05-.19,.09-.27,.13-.08,.04-.15,.08-.23,.11,.38-.12,.76-.14,1.23-.02-.44,.23-.8,.22-1.23,.02Z"/><path d="M451.29,90.69c.14,.13,.26,.22,.36,.34,.2,.22,.16,.47,.04,.7-.12,.23-.29,.39-.6,.35-.38-.06-.77-.07-1.15-.11-.67-.08-1.28,.01-1.87,.42-.63,.44-1.29,.85-2.11,.86-.91,.01-1.8,.27-2.68,.31-.87,.04-1.66,.32-2.5,.39-.44,.03-.88,.03-1.32,.02-.48,0-.96-.05-1.45-.04-.55,0-.97,.26-1.23,.75-.03,.06-.07,.14-.13,.17-.43,.19-.77,.66-1.34,.42-.06-.02-.15,.03-.22,.05-.51,.15-.99,0-1.46-.18-.12-.04-.18-.23-.28-.34-.15-.17-.28-.36-.45-.5-.28-.24-.58-.44-.87-.67-.39-.31-.83-.45-1.32-.52-.55-.07-1.09-.22-1.64-.28-.23-.03-.49,.04-.72,.1-.18,.05-.33,.23-.53-.02l.18-.44-.35-.78c.78,.03,1.38-.25,1.99-.54,.21-.1,.48-.15,.72-.14,.58,.03,1.19,.02,1.69,.41,.85,.67,1.84,.95,2.87,1.08,1.57,.2,3.15,.31,4.73,.25,.92-.03,1.85-.13,2.77-.2,.17-.01,.35-.04,.52-.04,1.34,.02,2.65-.18,3.96-.39,.77-.12,1.4-.43,2.04-.86,.5-.34,1.09-.64,1.77-.51,.18,.03,.38-.04,.59-.06Z"/><path d="M439.09,86.36c.12,.03,.3,.02,.4,.11,.28,.24,.52,.47,.9,.58,.18,.05,.28,.38,.43,.61,.35,0,.64-.2,.82-.49,.54-.85,1.36-1.22,2.29-1.41,.37-.08,.74-.13,1.23-.21-.29,.5-.72,.62-1.07,.73-.56,.18-1.04,.51-1.57,.7-.61,.22-.77,.66-.8,1.23-.03,.51-.54,.9-1.13,.84-.42-.04-.81,.01-1.19,.18-.04,.02-.07,.03-.11,.03-.84,.06-1.65,.37-2.51,.26-.09-.01-.2-.03-.29,0-.48,.21-.8,0-1.12-.35-.16-.18-.38-.33-.6-.44-.69-.33-1.13-.9-1.51-1.53-.11-.18-.17-.4-.29-.57-.34-.5-.36-1-.05-1.6l1.68,.71c.24-.24,.46-.51,.72-.72,.37-.29,.82-.38,1.29-.39,.63,0,1.07,.38,1.53,.72,.2,.15,.4,.3,.57,.48,.13,.13,.21,.3,.34,.5Z"/><path d="M452.31,63.73s.06-.08,.08-.11c-.09-.09-.18-.17-.3-.28-.65,.13-1.34,.29-2.03,.41-.26,.04-.53,.1-.76-.14-.07-.07-.34-.06-.36-.02-.11,.26-.32,.16-.49,.18-.82,.09-1.63,.22-2.38,.59-.22,.11-.44,.21-.67,.32-.1-.11-.18-.21-.27-.3-.2-.06-.39-.11-.6,.05-.19,.15-.42,.25-.65,.36-.47,.21-.87,.52-1.24,.86,.11,.4,.36,.59,.68,.72,.38,.15,.72,.35,.9,.77,.11,.26,.11,.47-.07,.69-.21,.25-.41,.52-.57,.8-.21,.38-.45,.68-.96,.64l.04,.12c.29,.01,.58,.03,.88,.04,.34-.76,.86-1.35,1.48-1.86,.72-.6,1.54-1.02,2.42-1.34,.22-.08,.44-.17,.66-.25-.12-.09-.22-.09-.31-.08-.1,0-.21,0-.31,.01-.01-.04-.02-.07-.03-.11,.26-.11,.51-.23,.77-.33,1.28-.45,2.6-.71,3.94-.92,.05,0,.09-.06,.16-.1-.1-.12-.2-.23-.29-.33,.1-.14,.19-.26,.27-.37Zm-6.65,3.11c.34-.38,.77-.62,1.23-.81,.02,.04,.04,.07,.06,.11-.43,.23-.86,.47-1.29,.7Zm4.52-2.74s-.01-.09-.02-.13c.33-.16,.69-.14,1.04-.17,0,.05,0,.09,0,.14-.34,.05-.68,.1-1.03,.16Z"/><path d="M442.91,69.98l-.44-.24v-.06l.8,.12c-.71,3.11-.14,5.85,1.98,8.23-1.13-.99-1.81-2.26-2.25-3.65-.45-1.43-.33-2.89-.1-4.4Z"/><path d="M459.67,67.14c1.29,.84,1.88,2.73,1.38,4.6-.14-.86-.19-1.65-.41-2.4-.21-.72-.6-1.39-.97-2.2Z"/><path d="M454.67,80.4c-2.58,.72-5.1,.75-7.45-.78,1.15,.53,2.34,.98,3.63,1.07,1.29,.09,2.57,.04,3.82-.29Z"/><path d="M428.06,95.77c.14,.16,.25,.23,.24,.3-.03,.5,.27,.76,.65,.99,.37,.23,.48,.6,.45,1.09-.85-.57-1.34-1.26-1.34-2.38Z"/><path d="M435.55,81.67c-.47-.49-.84-.96-.93-1.63,.19-.08,.37-.13,.55,.18,.31,.53,.37,.65,.38,1.46Z"/><path d="M449.47,65.66s-.04,0-.06,.01l-.44,.05-.02-.11,1.46-.35,.02,.06-.97,.34Z"/><path d="M454.59,64.99h-1.88v-.02h1.88v.02Z"/><path d="M432.69,82.68l-.26,1.12c-.09-.57-.07-.68,.26-1.12Z"/><path d="M441.37,43.15l.95-.48c-.18,.29-.24,.32-.95,.48Z"/><path d="M454.73,89.26l-.68-.26,.05-.13,.69,.26-.06,.14Z"/><path d="M432.53,82.38c.06-.3,.12-.46,.4-.44,.01,.26-.12,.35-.4,.44Z"/><path d="M459.5,77.08l-.51,.75-.12-.1c.22-.21,.43-.42,.65-.64h-.01Z"/><path d="M452.07,70.5l.59-.21,.03,.1-.59,.2-.03-.1Z"/><path d="M444.05,73.08c.24,.27,.1,.42-.24,.62l.24-.64h0Z"/><path d="M440.56,44.03c-.06-.07-.12-.14-.11-.15,.04-.05,.1-.1,.16-.12,.02,0,.1,.08,.09,.1-.02,.06-.08,.1-.14,.17Z"/><path d="M446.28,78.94l-.49-.3,.09-.11,.38,.42h.01Z"/><path d="M444.06,73.07l-.33-.32c.29-.01,.31,.15,.32,.33h0Z"/><path d="M452.4,63.62c.13-.09,.2-.29,.44-.13-.15,.04-.3,.08-.45,.12h.01Z"/><path d="M458,78.58l.18-.15,.05,.06-.18,.15-.05-.06Z"/><path d="M446.26,78.96l.39,.17-.09,.11c-.1-.1-.19-.2-.29-.3h-.01Z"/><path d="M455.34,80.14l.28-.11,.03,.07-.27,.13-.04-.09Z"/><path d="M445.14,64.36l.22-.33,.09,.08c-.11,.08-.22,.16-.33,.24v.02Z"/><path d="M458.76,63.96l.14,.13-.03,.04-.15-.1,.04-.07Z"/><path d="M435.09,73.08c-.24,.1-.55,.14-.58,.48-.03,.33,.33,.27,.47,.43,.1,.38-.15,.66-.25,1.01-.22-.35-.42-.65-.61-.97-.16-.28-.06-.69,.21-.87,.14-.09,.32-.15,.44-.26,.1-.1,.15-.25,.27-.48,.04,.18,.07,.27,.07,.35,0,.09-.02,.19-.03,.3Z"/><path d="M430.2,66.71h.59v.12c-.2-.04-.39-.09-.58-.13h-.01Z"/><path d="M450.36,68.21c-.2,.1-.35,.17-.5,.24h0"/></g></svg>